<svg xmlns="http://www.w3.org/2000/svg" width="237" height="112" viewBox="0 0 237 112">
  <g fill="#0070BC">
    <path d="M181,112 C150.072054,112 125,86.927946 125,56 C125,25.072054 150.072054,0 181,0 C211.927946,0 237,25.072054 237,56 C237,86.927946 211.927946,112 181,112 Z M181,103.54717 C207.259577,103.54717 228.54717,82.2595768 228.54717,56 C228.54717,29.7404232 207.259577,8.45283019 181,8.45283019 C154.740423,8.45283019 133.45283,29.7404232 133.45283,56 C133.45283,82.2595768 154.740423,103.54717 181,103.54717 Z"/>
    <path d="M204.072262 79.2987896C205.735769 80.9448272 205.749931 83.6277432 204.103893 85.2912502 202.457856 86.9547571 199.77494 86.9689189 198.111433 85.3228813L174 61.4646557 174 24.2373685C174 21.8971345 175.897135 20 178.237369 20 180.577603 20 182.474737 21.8971345 182.474737 24.2373685L182.474737 57.9280717 204.072262 79.2987896zM111.039493 28C113.379727 28 115.276862 29.8971345 115.276862 32.2373685 115.276862 34.5776026 113.379727 36.4747371 111.039493 36.4747371L40.2373685 36.4747371C37.8971345 36.4747371 36 34.5776026 36 32.2373685 36 29.8971345 37.8971345 28 40.2373685 28L111.039493 28zM110.142616 55C112.48285 55 114.379984 56.8971345 114.379984 59.2373685 114.379984 61.5776026 112.48285 63.4747371 110.142616 63.4747371L4.23736854 63.4747371C1.89713452 63.4747371 0 61.5776026 0 59.2373685 0 56.8971345 1.89713452 55 4.23736854 55L110.142616 55zM25.2373685 89.4747371C22.8971345 89.4747371 21 87.5776026 21 85.2373685 21 82.8971345 22.8971345 81 25.2373685 81L110.406821 81C112.747055 81 114.64419 82.8971345 114.64419 85.2373685 114.64419 87.5776026 112.747055 89.4747371 110.406821 89.4747371L25.2373685 89.4747371z"/>
  </g>
</svg>
