<svg xmlns="http://www.w3.org/2000/svg" width="174" height="147" viewBox="0 0 174 147">
  <path fill="#0070BC" fill-rule="evenodd" d="M89.7423145,123.302576 C90.1737102,125.573279 89.9992379,127.681842 89.1857698,129.748586 C88.5659145,131.323038 87.6133102,132.651712 86.3993655,133.804305 C85.8317783,134.344284 85.7500634,134.742666 86.4008379,135.338405 C87.6766209,136.507139 88.9398889,137.687611 90.2804549,138.784445 C91.3272889,139.640636 92.4668804,140.025812 93.79714,139.534988 C95.9070038,138.757299 97.4492804,137.342787 98.2539145,135.26137 C98.7729145,133.918757 98.6234719,132.61136 97.5516081,131.458767 C95.2702166,129.00538 93.0462464,126.498435 90.8001911,124.012767 C90.5351698,123.719299 90.2502719,123.458847 89.7423145,123.302576 M73.586323,114.341551 C73.5767528,112.845601 72.9384932,111.43549 71.5670081,110.19339 C70.035774,108.80749 67.0071698,107.686445 64.5829613,109.849299 C63.0524634,111.213923 61.454974,112.505179 59.9311017,113.878606 C57.8190294,115.782475 55.7599613,117.745038 53.6545145,119.656978 C52.4427783,120.758948 51.8508974,122.064877 52.1453655,123.702425 C52.4015528,125.128676 53.0869272,126.345098 54.1315528,127.335551 C56.3444804,129.432375 58.9689272,129.424305 61.1421017,127.356827 C61.5852762,126.935702 62.0674677,126.554194 62.5106421,126.131601 C65.7696677,123.025983 69.3099102,120.229973 72.5151953,117.064928 C73.2889102,116.301179 73.5885315,115.389229 73.586323,114.341551 M84.5950123,124.893169 C84.4190677,123.194727 83.0416932,121.632013 81.0768549,120.494093 C79.0995017,119.348837 77.3658209,120.013541 75.8610889,121.393571 C71.9262591,125.002485 68.0400166,128.66349 64.140523,132.309822 C63.6443443,132.773501 63.4411613,133.392717 63.3675443,134.050817 C63.1334421,136.154244 64.3149953,137.602506 65.7247613,138.888626 C67.9229655,140.895209 70.6313357,140.950234 72.8692932,138.979601 C76.0635357,136.16745 79.2033017,133.292204 82.3371783,130.412556 C83.7432634,129.121299 84.6170974,127.538043 84.5950123,124.893169 M50.1554974,90.0798724 C50.1628591,87.9603045 49.4774847,86.6624452 47.4846719,84.9060432 C45.7649783,83.3910181 42.9461826,83.3990884 41.2264889,84.9221839 C39.33674,86.5956814 37.4204889,88.2420332 35.5594506,89.9470784 C33.671174,91.6770683 31.7262123,93.3542342 30.0256591,95.2720432 C28.7822677,96.6748171 27.9798421,98.2786161 28.5820294,100.218435 C29.0782081,101.815631 30.0646762,103.108355 31.4324804,104.059923 C33.6858974,105.627038 35.3341826,105.512586 37.3652762,103.696023 C38.8170038,102.398897 40.2628421,101.092968 41.6689272,99.7474201 C44.1704336,97.3534603 46.7205272,95.0071889 49.0652294,92.4554905 C49.7108506,91.7526362 50.261506,90.9969578 50.1554974,90.0798724 M40.3209996,110.841219 C40.3239443,113.740676 42.3476762,116.384817 45.1657357,117.144164 C46.6211443,117.53741 48.0345911,117.320244 49.1410549,116.331993 C53.0390762,112.853671 57.0423698,109.489068 60.7511953,105.804586 C62.7035187,103.865501 62.8080549,101.176606 61.1207528,99.0049477 C60.5369698,98.2529377 59.8236209,97.652797 59.0852421,97.077601 C57.0688719,95.5038824 55.313106,95.4459226 53.2636081,96.9690181 C49.1756549,100.007872 45.6133272,103.638797 41.8816804,107.079702 C40.7663826,108.108305 40.3129017,109.36948 40.3209996,110.841219 M165.406625,53.1770884 C165.160008,52.846204 165.006885,52.6011588 164.816217,52.390596 C163.798093,51.2695508 162.7704,50.1580432 161.745651,49.0428673 C155.843774,42.6174 149.939689,36.1948673 144.038549,29.7686663 C137.431421,22.5721136 130.816931,15.3821638 124.237778,8.1614 C123.661357,7.52824422 123.356583,7.61408342 122.802246,8.12838492 C120.103446,10.625792 117.364893,13.0821136 114.650634,15.5626462 C111.96214,18.0211688 109.287634,20.4943648 106.598404,22.9521538 C106.26271,23.2595608 105.935114,23.4495809 106.41068,23.9653497 C111.49688,29.4766663 116.557314,35.0129276 121.631,40.5367166 C126.606038,45.9533899 131.592119,51.3612593 136.566421,56.7786663 C140.103719,60.6304251 143.645434,64.4785156 147.148131,68.3610884 C147.731178,69.0074503 148.079387,68.9399528 148.66317,68.3882342 C150.602242,66.556998 152.591374,64.7771186 154.562102,62.9796312 C157.973514,59.8674101 161.384927,56.7559226 164.800021,53.6473698 C164.985536,53.4771588 165.199025,53.3370281 165.406625,53.1770884 M23.4236847,66.6127568 C23.589323,66.4733598 23.7858804,66.3185558 23.969923,66.1512794 C30.9039102,59.836596 37.8378974,53.5226462 44.7696762,47.2057618 C52.5576209,40.1104553 60.3367315,33.0063447 68.1445528,25.9323146 C68.8542209,25.2888874 69.0470974,24.9242543 68.2903145,24.1128171 C63.3947826,18.8656211 58.5515187,13.5707367 53.7229783,8.26191256 C53.1575996,7.64049548 52.8439911,7.5935407 52.2057315,8.18267638 C46.8250634,13.1496111 41.4134762,18.082797 36.0033613,23.0189176 C26.6481102,31.5529477 17.2935953,40.0891789 7.91405064,48.5982643 C7.32879532,49.1287065 7.34278255,49.3928271 7.85442085,49.935008 C9.9812166,52.1917719 12.0616336,54.4918221 14.1597187,56.774998 C17.0624379,59.9349075 19.9636847,63.0955508 22.8700847,66.2525256 C23.009957,66.4036613 23.1270081,66.6076211 23.4236847,66.6127568 M116.382842,76.2502241 C111.12217,70.1270281 105.854136,64.0104352 100.616285,57.8674302 C100.134093,57.3010382 99.8705443,57.5776312 99.4980421,57.8923749 C96.8014506,60.1770181 94.1217911,62.4814704 91.3979613,64.7330985 C88.2066634,67.3713698 85.2663996,70.355199 81.5369613,72.2759427 C76.9940549,74.6156111 72.5291826,75.3397417 68.0613655,71.8540834 C63.7790634,68.5129578 61.8929953,63.4741236 63.3123315,58.4734402 C64.188374,55.3890985 66.0759145,52.9628573 68.2174336,50.7097618 C72.3414591,46.3701136 76.7709953,42.3400734 81.1651953,38.2784854 C81.72174,37.7634503 81.7526591,37.5235407 81.1173443,37.1075508 C77.9260464,35.0151286 74.6397826,33.2081035 70.7285102,32.7928472 C69.5130932,32.6637216 68.60834,32.8449377 67.6947528,33.6945256 C63.3093868,37.7722543 58.8754336,41.7971588 54.4503145,45.831601 C47.5987783,52.0780533 40.7435613,58.3193698 33.8780379,64.5496814 C33.4252932,64.9605357 33.3391613,65.3119628 33.632157,65.8526764 C34.0436762,66.6112894 34.3764251,67.4109879 34.7467187,68.1916111 C36.4156166,71.7051487 37.8209655,75.328003 39.2395655,78.9464553 C39.3514634,79.2318523 39.2903613,79.8063146 39.881506,79.4937719 C41.7454889,78.5099226 43.761123,78.4842442 45.7900081,78.5209276 C46.0086506,78.5700834 46.2280294,78.6207065 46.4466719,78.6698623 C51.9377655,79.9816613 55.3940847,84.1870482 55.5442634,89.8062141 C55.5626677,90.4892593 55.7246251,90.6880834 56.437974,90.7277015 C62.6416804,91.071792 67.7013783,96.4884653 67.5850634,102.660083 C67.5718123,103.356335 67.7948719,103.528013 68.4184081,103.55149 C69.9120974,103.608717 71.3564634,103.914656 72.6837783,104.632184 C76.3035272,106.588877 78.4384209,109.566837 78.8447868,113.684918 C78.9242932,114.488284 79.1377826,114.842646 80.0432719,114.86539 C82.0522804,114.915279 83.8139357,115.720114 85.4033272,116.9314 C86.228574,117.561621 86.8344421,118.973199 87.7149017,118.846274 C88.6130294,118.715681 89.3720209,117.562355 90.1700294,116.833088 C90.6772506,116.368676 91.1918336,116.424435 91.5319443,116.921129 C92.3557187,118.12141 93.4445145,119.072978 94.4125783,120.136063 C96.7668506,122.720777 99.1174421,125.309159 101.53208,127.838114 C103.073621,129.452918 104.685097,129.745651 106.529204,128.854978 C107.785846,128.248234 108.825319,127.345822 109.587991,126.174154 C110.764391,124.364928 110.577404,122.1874 109.212544,120.596073 C105.974131,116.816948 102.582595,113.176485 99.1976847,109.530154 C98.7736506,109.072345 98.749357,108.834636 99.2374379,108.428918 C100.151025,107.666636 101.032221,106.861802 101.875872,106.022485 C102.416221,105.48544 102.747497,105.418676 103.318029,106.057702 C106.705149,109.848566 110.15337,113.584405 113.555212,117.36133 C114.200097,118.078124 114.965714,118.446425 115.890344,118.582887 C118.383753,118.952656 120.484046,118.163963 122.105093,116.296043 C123.645161,114.521299 123.854234,111.574154 121.870991,109.57344 C118.244617,105.91537 114.894306,101.985109 111.411485,98.1847065 C111.023523,97.7606462 111.050761,97.4965256 111.471114,97.1370281 C112.426663,96.3175206 113.391046,95.5002141 114.275923,94.6080734 C114.804493,94.0746965 115.089391,94.1876814 115.5414,94.6836412 C118.652455,98.0937317 121.779706,101.488415 124.925361,104.86549 C125.701285,105.698938 126.382978,106.637299 127.558642,107.041551 C130.110944,107.919018 132.36068,107.228636 134.37337,104.860355 C136.454523,102.412104 136.479553,100.412857 134.569927,97.8662945 C132.947408,95.7027065 131.224034,93.6227568 129.474157,91.5655508 C127.72428,89.5090784 126.090719,87.3535608 124.196553,85.4203447 C123.899876,84.6140432 123.214502,84.0982744 122.683723,83.477591 C120.608459,81.0469477 118.486817,78.6559226 116.382842,76.2502241 M118.932936,69.4535206 L125.216885,76.5781739 C125.353812,76.7256412 125.491476,76.8731085 125.62914,77.0198422 C126.42494,77.9963548 127.257549,78.9464553 128.002553,79.9596513 C128.48548,80.6155508 128.755655,80.3807769 129.091349,79.8730784 C131.397034,76.3874201 133.611434,72.8467367 135.686697,69.2187467 C135.90534,69.056606 136.077604,68.8614503 136.150485,68.5929276 C136.467038,68.0778925 136.757825,67.5445156 137.108242,67.0529578 C137.514608,66.4836312 137.539638,66.0764452 136.999289,65.4946462 C133.341995,61.5548472 129.740651,57.5636915 126.110595,53.5974804 C119.440157,46.3084854 112.728493,39.0554402 106.123574,31.7062844 C105.132689,30.6028472 104.291246,30.2411487 102.824795,30.4451085 C99.1432081,30.9564754 95.8466379,32.1817015 93.0690677,34.7055206 C91.4458123,36.1809276 89.7607187,37.5881035 88.0984464,39.0187568 C81.8233315,44.4170884 75.9913911,50.2702945 70.2809187,56.2467568 C69.0691826,57.5145357 68.1555953,59.0457015 67.946523,60.7977015 C67.5806464,63.8578322 69.2650038,65.984003 71.5265187,67.7418724 C73.3846123,69.1857317 75.3973017,69.1798623 77.4261868,68.147591 C79.8503953,66.9135608 82.0441826,65.3156312 84.1069315,63.5650985 C87.2415443,60.9040834 90.298123,58.1520935 93.3826762,55.4316513 C95.116357,53.9034201 96.8905272,52.4258121 98.7427315,51.0428472 C100.147344,49.9937015 101.719068,49.9988372 102.749706,51.1484955 C106.072042,54.8542543 109.347263,58.6018322 112.664446,62.311993 M22.4615102,73.6640432 C15.1373528,65.6538523 7.79111021,57.662003 0.427935745,49.6877618 C-0.122719574,49.0912894 -0.17793234,48.7772794 0.474314468,48.1859427 C7.80068043,41.5499126 15.0902379,34.874998 22.3974634,28.2176915 C28.7962549,22.3879628 35.2112421,16.5743749 41.6085613,10.7424452 C43.3628549,9.14231457 45.0766591,7.49963116 46.8096038,5.87675678 L46.8110762,5.87162111 C48.8723528,4.22820402 50.7481145,2.37715879 52.6827698,0.592877387 C53.1936719,0.121862312 53.4483868,0.101319598 53.93794,0.641299497 C58.1296932,5.25974171 62.3553102,9.84736985 66.5720932,14.4430683 C69.7148038,17.8678322 72.8420549,21.305802 76.0201017,24.6968171 C76.570757,25.2837518 76.49714,25.5882241 75.9413315,26.0475005 C75.3649102,26.5243849 74.7045655,26.9293698 74.2672804,27.7070583 C76.1047613,27.9880533 77.7920634,28.5977317 79.4374038,29.3343347 C81.6444421,30.3225859 83.7903783,31.4282241 85.709574,32.9065658 C86.349306,33.3988573 86.7019315,33.2616613 87.2444889,32.7590985 C89.4360677,30.7246362 91.6659272,28.7349276 94.3750336,27.3644352 C95.8459017,26.6219628 97.4176251,26.2646663 99.0062804,25.9337819 C99.4892081,25.8325357 99.9736081,25.7371588 100.641314,25.6014302 C100.003791,24.8824352 99.4950974,24.2478121 98.9201485,23.6792191 C98.5181996,23.2808372 98.5145187,23.0277216 98.9414974,22.6418121 C103.784025,18.2588774 108.608885,13.857601 113.446259,9.47026432 C115.15491,7.92002312 116.976931,6.48276683 118.573685,4.82834472 C119.836217,3.5194804 121.301195,2.44465628 122.529863,1.11231457 C122.837583,0.884143719 123.225544,0.711731658 123.436825,0.415329648 C123.792395,-0.0857658291 124.041957,0.174686432 124.337897,0.422666332 C125.769012,2.01179196 127.188349,3.61192261 128.634923,5.18784221 C132.757476,9.67862613 136.89328,14.1569377 141.020251,18.6447869 C146.903723,25.0401739 152.79014,31.4340935 158.664042,37.8390181 C163.222408,42.8088874 167.75648,47.8022342 172.325889,52.7625658 C172.799246,53.2768673 172.809553,53.5277819 172.272885,54.0134704 C167.32214,58.4881136 162.403787,62.9987065 157.472183,67.4953598 C154.380268,70.3141136 151.258906,73.1020533 148.204536,75.9626261 C147.564804,76.5612995 147.293893,76.4116312 146.802868,75.8569779 C145.256174,74.1130482 143.657949,72.414606 141.962549,70.5716312 C140.989331,72.4248774 140.063966,74.1269879 139.193812,75.8569779 C137.569085,79.0858523 135.549034,82.0667467 133.434017,84.9852794 C133.049,85.5171889 133.016608,85.817993 133.461991,86.3418322 C135.260455,88.4577317 137.047876,90.5861035 138.744012,92.7827065 C141.039391,95.7555307 142.482285,99.0342945 141.780714,102.905862 C141.470051,104.61531 140.543949,106.051098 139.413927,107.334284 C137.446144,109.568305 135.362046,111.657058 132.295161,112.36138 C131.339612,112.580747 130.378174,112.75536 129.398331,112.68346 C128.779212,112.63944 128.584127,112.87935 128.570876,113.468485 C128.447936,118.929913 123.782825,123.046526 119.00508,123.822013 C118.175417,123.957008 117.346489,124.013501 116.520506,123.94747 C115.867523,123.894646 115.695995,124.117681 115.583361,124.744234 C114.644744,129.95548 111.437251,133.190224 106.256821,134.223229 C106.044804,134.265048 105.830578,134.306867 105.615617,134.324475 C103.832612,134.474144 103.832612,134.472676 103.374714,136.232747 C101.957587,141.682435 96.643174,145.501179 91.2728123,144.964134 C89.8004719,144.816666 88.6211272,144.054385 87.4513528,143.284767 C85.5159613,142.011852 83.7513613,140.516636 82.1420932,138.854877 C81.7025996,138.400737 81.4692336,138.45943 81.0290038,138.836536 C79.0303017,140.546717 77.2568677,142.512948 75.035106,143.972214 C70.9545145,146.654506 65.3758166,146.044093 61.9018294,142.593651 C59.6535655,140.361832 58.2349655,137.796194 58.1885868,134.592998 C58.1775443,133.829249 57.7233272,133.940033 57.2654294,133.915822 C54.3884762,133.761752 51.8935953,132.682526 49.9994294,130.537279 C48.185506,128.484475 46.8309528,126.138938 46.7168464,123.294506 C46.6910804,122.649611 46.4886336,122.461792 45.8363868,122.418506 C39.9904591,122.025993 35.5152804,117.601973 34.9800847,111.715752 C34.933706,111.210988 34.9219272,110.875702 34.2534847,110.78546 C29.3550081,110.125892 26.2645655,107.106847 24.0796123,102.932274 C22.5108336,99.9337719 22.3709613,96.9220633 24.1686889,93.996194 C25.0358974,92.5838824 26.2586762,91.4173497 27.4578974,90.2706261 C29.2828634,88.5244955 31.1593613,86.8319226 33.0078847,85.110003 C33.2412506,84.8928372 33.4378081,84.6367869 33.6512974,84.3990784 C34.0664974,84.1606362 34.6892974,83.9852894 34.4183868,83.3550683 C34.0856379,82.5825156 33.9730038,81.7204553 33.4606294,81.0249377 C32.563974,78.4042744 31.4884294,75.8547769 30.3532549,73.3302241 C29.8960932,72.3126261 29.4315698,71.2979628 28.9920762,70.2737618 C28.688774,69.5665055 28.4215443,69.2216814 27.6839017,69.9531487" transform="rotate(-1 144.294 16.206)"/>
</svg>
