<svg xmlns="http://www.w3.org/2000/svg" width="233" height="25" viewBox="0 0 233 25">
  <g fill="#0070BC" fill-rule="evenodd" transform="translate(-3 -9)">
    <path d="M13.16567,9.68114418 C16.2120852,9.68114418 18.6088613,10.4091369 20.35607,11.8651442 C22.1032787,13.3211515 22.97687,15.3259314 22.97687,17.8795442 C22.97687,20.4331569 22.1032787,22.4379369 20.35607,23.8939442 C18.6088613,25.3499515 16.2120852,26.0779442 13.16567,26.0779442 L7.35287,26.0779442 L7.35287,33.2011442 L3.99287,33.2011442 L3.99287,9.68114418 L13.16567,9.68114418 Z M13.06487,23.1547442 C15.1928806,23.1547442 16.8168644,22.7011487 17.93687,21.7939442 C19.0568756,20.8867396 19.61687,19.5819527 19.61687,17.8795442 C19.61687,16.1771357 19.0568756,14.8723487 17.93687,13.9651442 C16.8168644,13.0579396 15.1928806,12.6043442 13.06487,12.6043442 L7.35287,12.6043442 L7.35287,23.1547442 L13.06487,23.1547442 Z"/>
    <polygon points="26.572 9.681 29.932 9.681 29.932 30.278 42.666 30.278 42.666 33.201 26.572 33.201"/>
    <polygon points="62.927 30.278 62.927 33.201 45.858 33.201 45.858 9.681 62.457 9.681 62.457 12.604 49.218 12.604 49.218 19.828 61.012 19.828 61.012 22.684 49.218 22.684 49.218 30.278"/>
    <path d="M67.69847 9.68114418L77.61047 9.68114418C80.0968824 9.68114418 82.3032604 10.1739393 84.22967 11.1595442 86.1560796 12.1451491 87.6512647 13.5283353 88.71527 15.3091442 89.7792753 17.0899531 90.31127 19.1339326 90.31127 21.4411442 90.31127 23.7483557 89.7792753 25.7923353 88.71527 27.5731442 87.6512647 29.3539531 86.1560796 30.7371393 84.22967 31.7227442 82.3032604 32.7083491 80.0968824 33.2011442 77.61047 33.2011442L67.69847 33.2011442 67.69847 9.68114418zM77.40887 30.2779442C79.3128795 30.2779442 80.9872628 29.9083479 82.43207 29.1691442 83.8768772 28.4299405 84.9912661 27.3939508 85.77527 26.0611442 86.5592739 24.7283375 86.95127 23.1883529 86.95127 21.4411442 86.95127 19.6939354 86.5592739 18.1539508 85.77527 16.8211442 84.9912661 15.4883375 83.8768772 14.4523479 82.43207 13.7131442 80.9872628 12.9739405 79.3128795 12.6043442 77.40887 12.6043442L71.05847 12.6043442 71.05847 30.2779442 77.40887 30.2779442zM111.07607 21.3067442L114.30167 21.3067442 114.30167 30.4795442C113.136864 31.442749 111.781678 32.1819416 110.23607 32.6971442 108.690462 33.2123468 107.077678 33.4699442 105.39767 33.4699442 103.023258 33.4699442 100.88408 32.9491494 98.98007 31.9075442 97.0760605 30.865939 95.5808754 29.4323533 94.49447 27.6067442 93.4080646 25.7811351 92.86487 23.7259556 92.86487 21.4411442 92.86487 19.1563328 93.4080646 17.0955534 94.49447 15.2587442 95.5808754 13.421935 97.0816604 11.9883493 98.99687 10.9579442 100.91208 9.92753903 103.068058 9.41234418 105.46487 9.41234418 107.346479 9.41234418 109.054462 9.7203411 110.58887 10.3363442 112.123278 10.9523473 113.428065 11.8539382 114.50327 13.0411442L112.42007 15.1243442C110.538461 13.3099351 108.264883 12.4027442 105.59927 12.4027442 103.807261 12.4027442 102.200077 12.7891403 100.77767 13.5619442 99.3552629 14.334748 98.240874 15.4099373 97.43447 16.7875442 96.628066 18.1651511 96.22487 19.7163356 96.22487 21.4411442 96.22487 23.1435527 96.628066 24.6835373 97.43447 26.0611442 98.240874 27.4387511 99.3552629 28.5195403 100.77767 29.3035442 102.200077 30.0875481 103.796061 30.4795442 105.56567 30.4795442 107.671281 30.4795442 109.508062 29.9755492 111.07607 28.9675442L111.07607 21.3067442zM137.11607 30.2779442L137.11607 33.2011442 120.04727 33.2011442 120.04727 9.68114418 136.64567 9.68114418 136.64567 12.6043442 123.40727 12.6043442 123.40727 19.8283442 135.20087 19.8283442 135.20087 22.6843442 123.40727 22.6843442 123.40727 30.2779442 137.11607 30.2779442zM159.76247 20.9035442C161.151277 21.4187468 162.226466 22.1691393 162.98807 23.1547442 163.749674 24.1403491 164.13047 25.3275372 164.13047 26.7163442 164.13047 28.7771545 163.279279 30.3731385 161.57687 31.5043442 159.874461 32.6355498 157.410486 33.2011442 154.18487 33.2011442L140.94647 33.2011442 140.94647 9.68114418 153.51287 9.68114418C156.648886 9.68114418 159.017662 10.2411386 160.61927 11.3611442 162.220878 12.4811498 163.02167 13.9707349 163.02167 15.8299442 163.02167 16.9275497 162.747273 17.9131398 162.19847 18.7867442 161.649667 19.6603485 160.837675 20.3659415 159.76247 20.9035442zM148.74167 15.2251442L148.74167 18.7195442 152.43767 18.7195442C154.162479 18.7195442 155.02487 18.13715 155.02487 16.9723442 155.02487 15.8075384 154.162479 15.2251442 152.43767 15.2251442L148.74167 15.2251442zM153.51287 27.6571442C155.260079 27.6571442 156.13367 27.0411503 156.13367 25.8091442 156.13367 24.577138 155.260079 23.9611442 153.51287 23.9611442L148.74167 23.9611442 148.74167 27.6571442 153.51287 27.6571442zM182.94647 29.1019442L174.00887 29.1019442 172.42967 33.2011442 164.36567 33.2011442 174.64727 9.68114418 182.44247 9.68114418 192.72407 33.2011442 184.52567 33.2011442 182.94647 29.1019442zM180.76247 23.3899442L178.47767 17.4763442 176.19287 23.3899442 180.76247 23.3899442zM202.77047 33.7387442C200.82166 33.7387442 198.923279 33.5203464 197.07527 33.0835442 195.227261 32.646742 193.709676 32.0587479 192.52247 31.3195442L195.07607 25.5403442C196.196076 26.1899474 197.450463 26.7107422 198.83927 27.1027442 200.228077 27.4947461 201.560864 27.6907442 202.83767 27.6907442 203.935275 27.6907442 204.719268 27.5843452 205.18967 27.3715442 205.660072 27.1587431 205.89527 26.8395463 205.89527 26.4139442 205.89527 25.9211417 205.587273 25.5515454 204.97127 25.3051442 204.355267 25.0587429 203.341677 24.7899456 201.93047 24.4987442 200.116061 24.1179423 198.604076 23.7091464 197.39447 23.2723442 196.184864 22.835542 195.132074 22.1187492 194.23607 21.1219442 193.340066 20.1251392 192.89207 18.7755527 192.89207 17.0731442 192.89207 15.5947368 193.306466 14.2507502 194.13527 13.0411442 194.964074 11.8315381 196.201662 10.8795477 197.84807 10.1851442 199.494478 9.49074071 201.493658 9.14354418 203.84567 9.14354418 205.458478 9.14354418 207.043262 9.31714244 208.60007 9.66434418 210.156878 10.0115459 211.528864 10.5211408 212.71607 11.1931442L210.33047 16.9387442C208.023258 15.7739384 205.83928 15.1915442 203.77847 15.1915442 201.74006 15.1915442 200.72087 15.6843393 200.72087 16.6699442 200.72087 17.1403465 201.023267 17.493143 201.62807 17.7283442 202.232873 17.9635454 203.229663 18.2155428 204.61847 18.4843442 206.410479 18.8203459 207.922464 19.206742 209.15447 19.6435442 210.386476 20.0803464 211.456065 20.7915393 212.36327 21.7771442 213.270475 22.7627491 213.72407 24.1067357 213.72407 25.8091442 213.72407 27.2875516 213.309674 28.6259382 212.48087 29.8243442 211.652066 31.0227502 210.414478 31.9747407 208.76807 32.6803442 207.121662 33.3859477 205.122482 33.7387442 202.77047 33.7387442zM235.63127 27.2203442L235.63127 33.2011442 216.07607 33.2011442 216.07607 9.68114418 235.19447 9.68114418 235.19447 15.6619442 223.87127 15.6619442 223.87127 18.4171442 233.81687 18.4171442 233.81687 24.1291442 223.87127 24.1291442 223.87127 27.2203442 235.63127 27.2203442z"/>
  </g>
</svg>
