<svg xmlns="http://www.w3.org/2000/svg" width="329" height="98" viewBox="0 0 329 98">
  <g fill="none" fill-rule="evenodd">
    <path fill="#0070BC" fill-rule="nonzero" d="M42 93.6685083L42 75.801105 6.46153846 75.801105C2.89292931 75.801105 0 72.8921926 0 69.3038674L0 6.49723757C0 2.90891234 2.89292931 3.84713746e-15 6.46153846 0L105.538462 0C109.107071 0 112 2.90891234 112 6.49723757L112 69.3038674C112 72.8921926 109.107071 75.801105 105.538462 75.801105L70 75.801105 70 93.6685083 92.6153846 93.6685083C93.804921 93.6685083 94.7692308 94.6381457 94.7692308 95.8342541 94.7692308 97.0303626 93.804921 98 92.6153846 98L20.4615385 98C19.2720021 98 18.3076923 97.0303626 18.3076923 95.8342541 18.3076923 94.6381457 19.2720021 93.6685083 20.4615385 93.6685083L42 93.6685083zM6.46153846 5.41436464C5.86677027 5.41436464 5.38461538 5.89918336 5.38461538 6.49723757L5.38461538 69.3038674C5.38461538 69.9019216 5.86677027 70.3867403 6.46153846 70.3867403L105.538462 70.3867403C106.13323 70.3867403 106.615385 69.9019216 106.615385 69.3038674L106.615385 6.49723757C106.615385 5.89918336 106.13323 5.41436464 105.538462 5.41436464L6.46153846 5.41436464zM46.3076923 76.8839779L46.3076923 93.1270718 65.6923077 93.1270718 65.6923077 76.8839779 46.3076923 76.8839779zM10.7692308 64.4309392C10.1744626 64.4309392 9.69230769 63.9461205 9.69230769 63.3480663 9.69230769 62.7500121 10.1744626 62.2651934 10.7692308 62.2651934L102.307692 62.2651934C102.90246 62.2651934 103.384615 62.7500121 103.384615 63.3480663 103.384615 63.9461205 102.90246 64.4309392 102.307692 64.4309392L10.7692308 64.4309392zM259 93.6685083L259 75.801105 223.461538 75.801105C219.892929 75.801105 217 72.8921926 217 69.3038674L217 6.49723757C217 2.90891234 219.892929 3.84713746e-15 223.461538 0L322.538462 0C326.107071 0 329 2.90891234 329 6.49723757L329 69.3038674C329 72.8921926 326.107071 75.801105 322.538462 75.801105L287 75.801105 287 93.6685083 309.615385 93.6685083C310.804921 93.6685083 311.769231 94.6381457 311.769231 95.8342541 311.769231 97.0303626 310.804921 98 309.615385 98L237.461538 98C236.272002 98 235.307692 97.0303626 235.307692 95.8342541 235.307692 94.6381457 236.272002 93.6685083 237.461538 93.6685083L259 93.6685083zM223.461538 5.41436464C222.86677 5.41436464 222.384615 5.89918336 222.384615 6.49723757L222.384615 69.3038674C222.384615 69.9019216 222.86677 70.3867403 223.461538 70.3867403L322.538462 70.3867403C323.13323 70.3867403 323.615385 69.9019216 323.615385 69.3038674L323.615385 6.49723757C323.615385 5.89918336 323.13323 5.41436464 322.538462 5.41436464L223.461538 5.41436464zM263.307692 76.8839779L263.307692 93.1270718 282.692308 93.1270718 282.692308 76.8839779 263.307692 76.8839779zM227.769231 64.4309392C227.174463 64.4309392 226.692308 63.9461205 226.692308 63.3480663 226.692308 62.7500121 227.174463 62.2651934 227.769231 62.2651934L319.307692 62.2651934C319.90246 62.2651934 320.384615 62.7500121 320.384615 63.3480663 320.384615 63.9461205 319.90246 64.4309392 319.307692 64.4309392L227.769231 64.4309392z"/>
    <path stroke="#0070BC" stroke-width="2" d="M117,43.5 L141,43.5"/>
    <path fill="#0070BC" d="M161.72558,64.7539062 C161.144508,63.4787314 160.789413,62.6797414 160.660286,62.3569124 L159.1834,58.943012 C158.731455,57.8938175 158.344079,57.0383333 158.02126,56.3765337 L157.125444,54.5606292 C155.398367,51.138641 153.356573,48.7255299 151,47.3212234 C153.760095,44.9968541 156.221547,43.8346869 158.384429,43.8346869 C159.82097,43.8346869 160.950817,44.3875234 161.774003,45.493213 C162.597189,46.5989025 163.299308,48.5156714 163.880381,51.2435771 C168.077017,43.2858404 171.345503,37.7897579 173.685934,34.7551646 C175.784253,32.0272589 177.579902,30.2194432 179.072936,29.3316633 C180.56597,28.4438833 182.547237,28 185.016796,28 C186.566323,28 188.244953,28.2986124 190.052734,28.8958462 C185.839957,31.6560348 181.243902,36.1917152 176.264432,42.5030236 C171.284961,48.814332 166.438726,56.2312187 161.72558,64.7539062 Z"/>
    <path stroke="#0070BC" stroke-width="2" d="M187,43.5 L210.916574,43.5"/>
  </g>
</svg>
